<svg xmlns="http://www.w3.org/2000/svg" id="Layer_1" viewBox="0 0 147.44 160.45"><path d="M130.81,98.51c0,2.69-1.97,5.81-4.41,6.96l-5.93,2.8,15.65,18.76c1.84,2.27,5.14,3.03,8.04,1.46,2.85-1.54,3.33-3.82,3.28-7.01V38.39c0-2.69-1.98-5.81-4.41-6.95L78.13.86c-2.44-1.15-6.38-1.15-8.82,0L4.41,31.44c-2.44,1.15-4.41,4.26-4.41,6.95v84.15c0,2.69,1.97,5.81,4.41,6.95l9.77,4.6V45.23c0-2.69,1.97-5.81,4.41-6.96l49.84-23.58c2.43-1.15,4.41.1,4.41,2.79v8.78l-39.75,18.83c-2.43,1.15-4.41,4.27-4.41,6.96v88.88l14.89,7.02V59.11c0-2.69,1.97-5.81,4.41-6.96l49.84-23.58c2.43-1.15,4.41.1,4.41,2.79v8.78l-39.75,18.83c-2.43,1.16-4.41,4.27-4.41,6.96v88.85l11.13,5.24c2.44,1.15,4.41-.11,4.41-2.8v-84.21c0-2.69,1.98-5.8,4.42-6.94l48.36-22.59c2.44-1.14,4.42.12,4.42,2.81v52.21Z" fill="#2b4c7e"/><path d="M95.73,119.96v26.95c0,2.69,1.97,3.94,4.41,2.8l15.97-7.53c2.44-1.15,3.02-3.76,1.31-5.83l-15.83-19.16-5.86,2.77Z" fill="#2b4c7e"/><polygon points="95.73 79.75 95.73 98.96 111.64 91.45 111.64 72.35 95.73 79.75" fill="#2b4c7e"/></svg>